<?xml version="1.0" encoding="UTF-8"?><svg id="Layer_1" xmlns="http://www.w3.org/2000/svg" xmlns:xlink="http://www.w3.org/1999/xlink" viewBox="0 0 1920 725.5"><defs><style>.cls-1{fill:url(#linear-gradient);}</style><linearGradient id="linear-gradient" x1="0" y1="362.75" x2="1920" y2="362.75" gradientUnits="userSpaceOnUse"><stop offset="0" stop-color="#fff33b"/><stop offset=".07" stop-color="#fee62d"/><stop offset=".21" stop-color="#fdd51b"/><stop offset=".35" stop-color="#fdca0f"/><stop offset=".5" stop-color="#fdc70c"/><stop offset=".67" stop-color="#faa832"/><stop offset="1" stop-color="#faa833"/></linearGradient></defs><path class="cls-1" d="M1920,497c-225.07,92.85-420.71,148.48-568,183-17.87,4.19-52.95,13.86-100.5,22.33-107.37,19.13-249.8,44.51-399.75-8.45-34.47-12.18-84.41-33.81-139.75-73.88-31.33-23.3-85.03-59.92-152-89-71.23-30.93-123.07-38.4-135-40-2.73-.37-4.65-.6-6.81-.86-25.43-3.11-97.86-10.63-163.19-1.14-58.94,8.56-102.95,18.59-128.89,25.97-51.15,14.56-93.62,31.86-126.11,47.03V0H1920"/></svg>