<?xml version="1.0" encoding="UTF-8"?><svg id="Layer_1" xmlns="http://www.w3.org/2000/svg" xmlns:xlink="http://www.w3.org/1999/xlink" viewBox="0 0 1920 254.1"><defs><style>.cls-1{fill:url(#linear-gradient);}</style><linearGradient id="linear-gradient" x1="0" y1="-565.89" x2="1920" y2="-565.89" gradientTransform="translate(1920 -149.46) rotate(-180) scale(1 .49)" gradientUnits="userSpaceOnUse"><stop offset="0" stop-color="#fff33b"/><stop offset=".07" stop-color="#fee62d"/><stop offset=".21" stop-color="#fdd51b"/><stop offset=".35" stop-color="#fdca0f"/><stop offset=".5" stop-color="#fdc70c"/><stop offset=".67" stop-color="#faa832"/><stop offset="1" stop-color="#faa833"/></linearGradient></defs><path class="cls-1" d="M0,67.87C90.82,44.91,166.78,30.8,220,22.1c382.63-62.54,658.86,25.87,700.23,41.79,18.93,7.29,40.85,15.32,65.77,23.73,35.92,12.13,105.82,35.5,187,51.73,134.26,26.85,274.01,22.33,340,19.31,212.6-9.72,406.95-52.89,407-52.56,0,.04-3.38,.7-3.39,.66,0-.02,.64-.18,3.39-.81,0,.03,0,.07,0,.1V254.1H0"/></svg>